<?xml version="1.0" standalone="no"?>
<svg xmlns:xlink="http://www.w3.org/1999/xlink" id="wave" style="transform:rotate(180deg); transition: 0.3s" viewBox="0 0 1440 150" version="1.1" xmlns="http://www.w3.org/2000/svg"><defs><linearGradient id="sw-gradient-0" x1="0" x2="0" y1="1" y2="0"><stop stop-color="rgba(255, 255, 255, 1)" offset="0%"/><stop stop-color="rgba(111.928, 166.097, 203.203, 1)" offset="100%"/></linearGradient></defs><path style="transform:translate(0, 0px); opacity:1" fill="url(#sw-gradient-0)" d="M0,0L90,75L180,60L270,0L360,120L450,120L540,90L630,135L720,60L810,15L900,75L990,0L1080,135L1170,120L1260,120L1350,75L1440,135L1530,15L1620,105L1710,105L1800,75L1890,105L1980,105L2070,75L2160,135L2160,150L2070,150L1980,150L1890,150L1800,150L1710,150L1620,150L1530,150L1440,150L1350,150L1260,150L1170,150L1080,150L990,150L900,150L810,150L720,150L630,150L540,150L450,150L360,150L270,150L180,150L90,150L0,150Z"/></svg>