<?xml version="1.0" standalone="no"?>
<svg xmlns:xlink="http://www.w3.org/1999/xlink" id="wave" style="transform:rotate(0deg); transition: 0.3s" viewBox="0 0 1440 470" version="1.1" xmlns="http://www.w3.org/2000/svg"><defs><linearGradient id="sw-gradient-0" x1="0" x2="0" y1="1" y2="0"><stop stop-color="rgba(255, 255, 255, 0.99)" offset="0%"/><stop stop-color="rgba(116.488, 170.841, 191.819, 1)" offset="100%"/></linearGradient></defs><path style="transform:translate(0, 0px); opacity:1" fill="url(#sw-gradient-0)" d="M0,376L24,344.7C48,313,96,251,144,203.7C192,157,240,125,288,164.5C336,204,384,313,432,336.8C480,360,528,298,576,250.7C624,204,672,172,720,203.7C768,235,816,329,864,329C912,329,960,235,1008,211.5C1056,188,1104,235,1152,282C1200,329,1248,376,1296,391.7C1344,407,1392,392,1440,329C1488,266,1536,157,1584,148.8C1632,141,1680,235,1728,235C1776,235,1824,141,1872,86.2C1920,31,1968,16,2016,62.7C2064,110,2112,219,2160,219.3C2208,219,2256,110,2304,86.2C2352,63,2400,125,2448,195.8C2496,266,2544,345,2592,360.3C2640,376,2688,329,2736,305.5C2784,282,2832,282,2880,289.8C2928,298,2976,313,3024,313.3C3072,313,3120,298,3168,266.3C3216,235,3264,188,3312,148.8C3360,110,3408,78,3432,62.7L3456,47L3456,470L3432,470C3408,470,3360,470,3312,470C3264,470,3216,470,3168,470C3120,470,3072,470,3024,470C2976,470,2928,470,2880,470C2832,470,2784,470,2736,470C2688,470,2640,470,2592,470C2544,470,2496,470,2448,470C2400,470,2352,470,2304,470C2256,470,2208,470,2160,470C2112,470,2064,470,2016,470C1968,470,1920,470,1872,470C1824,470,1776,470,1728,470C1680,470,1632,470,1584,470C1536,470,1488,470,1440,470C1392,470,1344,470,1296,470C1248,470,1200,470,1152,470C1104,470,1056,470,1008,470C960,470,912,470,864,470C816,470,768,470,720,470C672,470,624,470,576,470C528,470,480,470,432,470C384,470,336,470,288,470C240,470,192,470,144,470C96,470,48,470,24,470L0,470Z"/></svg>