<?xml version="1.0" standalone="no"?>
<svg xmlns:xlink="http://www.w3.org/1999/xlink" id="wave" style="transform:rotate(180deg); transition: 0.3s" viewBox="0 0 1440 290" version="1.1" xmlns="http://www.w3.org/2000/svg"><defs><linearGradient id="sw-gradient-0" x1="0" x2="0" y1="1" y2="0"><stop stop-color="rgba(255, 255, 255, 0.99)" offset="0%"/><stop stop-color="rgba(75.844, 129.953, 150.837, 1)" offset="100%"/></linearGradient></defs><path style="transform:translate(0, 0px); opacity:1" fill="url(#sw-gradient-0)" d="M0,58L24,72.5C48,87,96,116,144,135.3C192,155,240,164,288,145C336,126,384,77,432,91.8C480,106,528,184,576,193.3C624,203,672,145,720,116C768,87,816,87,864,96.7C912,106,960,126,1008,116C1056,106,1104,68,1152,43.5C1200,19,1248,10,1296,43.5C1344,77,1392,155,1440,174C1488,193,1536,155,1584,130.5C1632,106,1680,97,1728,82.2C1776,68,1824,48,1872,38.7C1920,29,1968,29,2016,48.3C2064,68,2112,106,2160,130.5C2208,155,2256,164,2304,154.7C2352,145,2400,116,2448,96.7C2496,77,2544,68,2592,67.7C2640,68,2688,77,2736,82.2C2784,87,2832,87,2880,72.5C2928,58,2976,29,3024,33.8C3072,39,3120,77,3168,106.3C3216,135,3264,155,3312,178.8C3360,203,3408,232,3432,246.5L3456,261L3456,290L3432,290C3408,290,3360,290,3312,290C3264,290,3216,290,3168,290C3120,290,3072,290,3024,290C2976,290,2928,290,2880,290C2832,290,2784,290,2736,290C2688,290,2640,290,2592,290C2544,290,2496,290,2448,290C2400,290,2352,290,2304,290C2256,290,2208,290,2160,290C2112,290,2064,290,2016,290C1968,290,1920,290,1872,290C1824,290,1776,290,1728,290C1680,290,1632,290,1584,290C1536,290,1488,290,1440,290C1392,290,1344,290,1296,290C1248,290,1200,290,1152,290C1104,290,1056,290,1008,290C960,290,912,290,864,290C816,290,768,290,720,290C672,290,624,290,576,290C528,290,480,290,432,290C384,290,336,290,288,290C240,290,192,290,144,290C96,290,48,290,24,290L0,290Z"/></svg>